# xmcd
#
# Track frame offsets:
#	150
#	12190
#	26140
#	40750
#	52442
#	65875
#	78547
#	91660
#	103102
#	111445
#	124125
#	134087
#	149145
#	161740
#	173302
#	185665
#
# Disc length: 2632
#
# Revision: 1
# Processed by: cddbd v1.5.1PL0 Copyright (c) Steve Scherf et al.
# Submitted via: dBpowerAMP V4.0
# Normalized: r0:TDELIM( - )
#
DISCID=f10a4610
DTITLE=Various Artist - The Blues Volume 6
DYEAR=1900
DGENRE=Blues
TTITLE0=Howlin' Wolf - Going Back Home
TTITLE1=Little Walter - Juke
TTITLE2=Rocky Fuller - Funeral Hearse at my Door
TTITLE3=Blue Smitty - Date Bait
TTITLE4=Memphis Minnie - Lake Michigan
TTITLE5=Little Joe E. Lee - What Kind of Gal is That
TTITLE6=Sonny Boy Williamson - I Don't Know
TTITLE7=Percy Mayfield - Would You Call Me A Fool
TTITLE8=Muddy Waters - All Night Long
TTITLE9=John Brim - Gary Stomp
TTITLE10=Floyd Jones - Overseas
TTITLE11=Eddie Boyd - Got Lonesome Here
TTITLE12=Alberta Adams - Messing Around With The Blues
TTITLE13=Willie Mabon - I'm Mad
TTITLE14=Floyd Dixon - Alarm Clock Blues
TTITLE15=Lowell Fulson - Don't Drive Me Baby
EXTD=
EXTT0=
EXTT1=
EXTT2=
EXTT3=
EXTT4=
EXTT5=
EXTT6=
EXTT7=
EXTT8=
EXTT9=
EXTT10=
EXTT11=
EXTT12=
EXTT13=
EXTT14=
EXTT15=
PLAYORDER=
